<svg width="52" height="52" viewBox="0 0 52 52" fill="none" xmlns="http://www.w3.org/2000/svg">
<rect width="52" height="52" rx="26" fill="#131523" fill-opacity="0.7"/>
<path d="M21.3906 27.75H27.25C27.9141 27.75 28.5 27.2031 28.5 26.5V19C28.5 18.3359 27.9141 17.75 27.25 17.75H16C15.2969 17.75 14.75 18.3359 14.75 19V26.5C14.75 27.2031 15.2969 27.75 16 27.75H17.25C17.9141 27.75 18.5 28.3359 18.5 29V29.625L20.6484 28.0234C20.8828 27.8672 21.1172 27.75 21.3906 27.75ZM27.25 29H21.3906L18.2266 31.3828C18.0312 31.5391 17.7969 31.5391 17.5625 31.4609C17.3672 31.3438 17.25 31.1484 17.25 30.875V30.25V29H16C14.5938 29 13.5 27.9062 13.5 26.5V19C13.5 17.6328 14.5938 16.5 16 16.5H27.25C28.6172 16.5 29.75 17.6328 29.75 19V26.5C29.75 27.9062 28.6172 29 27.25 29ZM26 34C24.5938 34 23.5 32.9062 23.5 31.5V30.25H24.75V31.5C24.75 32.2031 25.2969 32.75 26 32.75H30.5703C30.8438 32.75 31.1172 32.8672 31.3125 33.0234L33.5 34.625V34C33.5 33.3359 34.0469 32.75 34.75 32.75H36C36.6641 32.75 37.25 32.2031 37.25 31.5V24C37.25 23.3359 36.6641 22.75 36 22.75H31V21.5H36C37.3672 21.5 38.5 22.6328 38.5 24V31.5C38.5 32.9062 37.3672 34 36 34H34.75V35.25V35.875C34.75 36.1484 34.5938 36.3438 34.3984 36.4609C34.1641 36.5391 33.9297 36.5391 33.7344 36.3828L30.5703 34H26Z" fill="white"/>
</svg>
