<svg data-name="Group 144081" xmlns="http://www.w3.org/2000/svg" width="23.081" height="30" viewBox="0 0 23.081 30">
    <defs>
        <clipPath id="191n2aihla">
            <path data-name="Rectangle 148612" style="fill:#131523" d="M0 0h23.081v30H0z"/>
        </clipPath>
    </defs>
    <g data-name="Group 144080" style="clip-path:url(#191n2aihla)">
        <path data-name="Path 62098" d="M12.262 0C6.095 0 0 4.111 0 10.765 0 15 2.38 17.4 3.823 17.4c.6 0 .938-1.659.938-2.128 0-.559-1.425-1.749-1.425-4.075a8.123 8.123 0 0 1 8.439-8.259c4.093 0 7.123 2.326 7.123 6.6 0 3.192-1.28 9.178-5.428 9.178a2.669 2.669 0 0 1-2.777-2.633c0-2.272 1.587-4.472 1.587-6.816 0-3.979-5.644-3.258-5.644 1.551a7.062 7.062 0 0 0 .577 3.047c-.829 3.57-2.525 8.89-2.525 12.568 0 1.136.162 2.254.27 3.39.2.228.1.2.415.09 3.027-4.145 2.922-4.956 4.292-10.384a4.875 4.875 0 0 0 4.165 2.164c6.383 0 9.251-6.221 9.251-11.829C23.081 3.895 17.924 0 12.262 0" style="fill:#131523"/>
    </g>
</svg>
